<svg width="64" height="67" viewBox="0 0 64 67" fill="none" xmlns="http://www.w3.org/2000/svg">
<path d="M54 32.5C54 38.3491 50.8165 43.8668 46.3811 48.8041C42.1479 53.5163 36.8833 57.58 32.5 60.7652C28.1167 57.58 22.8521 53.5163 18.6189 48.8041C14.1835 43.8668 11 38.3491 11 32.5C11 20.6259 20.6259 11 32.5 11C44.3741 11 54 20.6259 54 32.5Z" fill="url(#paint0_linear_1_62)" stroke="url(#paint1_linear_1_62)" stroke-width="2"/>
<path d="M49.4667 33.1731C49.4667 37.8512 46.9159 42.2784 43.3361 46.2573C39.9444 50.0273 35.7295 53.2843 32.2 55.8479C28.6705 53.2843 24.4556 50.0273 21.0639 46.2573C17.4841 42.2784 14.9333 37.8512 14.9333 33.1731C14.9333 23.6531 22.6626 15.9333 32.2 15.9333C41.7374 15.9333 49.4667 23.6531 49.4667 33.1731Z" fill="url(#paint2_linear_1_62)" stroke="#ED6BFF" stroke-width="1.86667"/>
<path d="M26.7184 26.0131L32 22.5955L37.2816 26.0131L32 33.1588L26.7184 26.0131Z" fill="url(#paint3_linear_1_62)" stroke="#9810FA"/>
<g filter="url(#filter0_d_1_62)">
<circle cx="24.2887" cy="21.2887" r="8" transform="rotate(2.10663 24.2887 21.2887)" fill="white"/>
<circle cx="24.2887" cy="21.2887" r="7" transform="rotate(2.10663 24.2887 21.2887)" stroke="#9810FA" stroke-width="2"/>
</g>
<g filter="url(#filter1_d_1_62)">
<path d="M48 21C48 25.4183 44.4183 29 40 29C35.5817 29 32 25.4183 32 21C32 16.5817 35.5817 13 40 13C44.4183 13 48 16.5817 48 21Z" fill="white"/>
<path d="M47 21C47 24.866 43.866 28 40 28C36.134 28 33 24.866 33 21C33 17.134 36.134 14 40 14C43.866 14 47 17.134 47 21Z" stroke="#9810FA" stroke-width="2"/>
</g>
<circle cx="25" cy="20" r="2" fill="#9810FA"/>
<circle cx="39" cy="20" r="2" fill="#9810FA"/>
<g filter="url(#filter2_d_1_62)">
<rect x="23" y="37" width="2" height="18" rx="1" fill="#9810FA"/>
</g>
<g filter="url(#filter3_d_1_62)">
<rect x="39" y="37" width="2" height="18" rx="1" fill="#9810FA"/>
</g>
<path d="M31.7944 44.7273V37.4545H32.2603V44.7273H31.7944ZM33.1381 39.7812C33.1116 39.5331 32.9999 39.34 32.8029 39.2017C32.6078 39.0634 32.354 38.9943 32.0415 38.9943C31.8219 38.9943 31.6334 39.0275 31.4762 39.0938C31.319 39.16 31.1987 39.25 31.1154 39.3636C31.0321 39.4773 30.9895 39.607 30.9876 39.7528C30.9876 39.8741 31.015 39.9792 31.07 40.0682C31.1268 40.1572 31.2035 40.233 31.3001 40.2955C31.3967 40.3561 31.5037 40.4072 31.6211 40.4489C31.7385 40.4905 31.8569 40.5256 31.9762 40.554L32.5217 40.6903C32.7414 40.7415 32.9525 40.8106 33.1552 40.8977C33.3597 40.9848 33.5425 41.0947 33.7035 41.2273C33.8664 41.3598 33.9951 41.5199 34.0898 41.7074C34.1845 41.8949 34.2319 42.1146 34.2319 42.3665C34.2319 42.7074 34.1448 43.0076 33.9705 43.267C33.7963 43.5246 33.5444 43.7263 33.2148 43.8722C32.8872 44.0161 32.4904 44.0881 32.0245 44.0881C31.5719 44.0881 31.1789 44.018 30.8455 43.8778C30.5141 43.7377 30.2546 43.5331 30.0671 43.2642C29.8815 42.9953 29.7811 42.6676 29.766 42.2812H30.8029C30.8181 42.4839 30.8806 42.6525 30.9904 42.7869C31.1003 42.9214 31.2433 43.0218 31.4194 43.0881C31.5974 43.1544 31.7963 43.1875 32.016 43.1875C32.2451 43.1875 32.4459 43.1534 32.6183 43.0852C32.7925 43.0152 32.9289 42.9186 33.0273 42.7955C33.1258 42.6705 33.176 42.5246 33.1779 42.358C33.176 42.2064 33.1315 42.0814 33.0444 41.983C32.9573 41.8826 32.8351 41.7992 32.6779 41.733C32.5226 41.6648 32.3408 41.6042 32.1325 41.5511L31.4705 41.3807C30.9914 41.2576 30.6126 41.071 30.3342 40.821C30.0576 40.5691 29.9194 40.2348 29.9194 39.8182C29.9194 39.4754 30.0122 39.1752 30.1978 38.9176C30.3853 38.66 30.64 38.4602 30.962 38.3182C31.284 38.1742 31.6486 38.1023 32.0558 38.1023C32.4686 38.1023 32.8304 38.1742 33.141 38.3182C33.4535 38.4602 33.6987 38.6581 33.8768 38.9119C34.0548 39.1638 34.1467 39.4536 34.1523 39.7812H33.1381Z" fill="white"/>
<rect x="26.6428" y="47" width="6" height="1" rx="0.5" transform="rotate(40 26.6428 47)" fill="url(#paint4_linear_1_62)"/>
<rect x="26.6428" y="45" width="6" height="1" rx="0.5" transform="rotate(40 26.6428 45)" fill="url(#paint5_linear_1_62)"/>
<rect width="6" height="1" rx="0.5" transform="matrix(-0.766044 0.642788 0.642788 0.766044 37.5963 47)" fill="url(#paint6_linear_1_62)"/>
<rect width="6" height="1" rx="0.5" transform="matrix(-0.766044 0.642788 0.642788 0.766044 37.5963 45)" fill="url(#paint7_linear_1_62)"/>
<path fill-rule="evenodd" clip-rule="evenodd" d="M16.9566 0.362069C17.3625 0.858949 17.1724 1.58211 16.6161 1.90166C10.272 5.54546 5.21468 11.1766 2.29357 17.9456C2.0754 18.4512 1.51195 18.7293 0.99343 18.544V18.544C0.44975 18.3498 0.205288 17.7383 0.43317 17.2079C3.53021 9.99863 8.91415 4.00406 15.672 0.137163C16.1 -0.107748 16.6447 -0.0198321 16.9566 0.362069V0.362069Z" fill="url(#paint8_linear_1_62)"/>
<path fill-rule="evenodd" clip-rule="evenodd" d="M47.3915 0.362069C46.9856 0.858949 47.1757 1.58211 47.732 1.90166C54.0761 5.54546 59.1334 11.1766 62.0545 17.9456C62.2727 18.4512 62.8362 18.7293 63.3547 18.544V18.544C63.8984 18.3498 64.1428 17.7383 63.9149 17.2079C60.8179 9.99863 55.434 4.00406 48.6761 0.137163C48.2481 -0.107748 47.7035 -0.0198322 47.3915 0.362069V0.362069Z" fill="url(#paint9_linear_1_62)"/>
<path fill-rule="evenodd" clip-rule="evenodd" d="M16.9566 65.8411C17.3625 65.3443 17.1724 64.6211 16.6161 64.3015C10.272 60.6577 5.21468 55.0266 2.29357 48.2576C2.0754 47.752 1.51195 47.4739 0.99343 47.6592V47.6592C0.44975 47.8534 0.205288 48.4649 0.43317 48.9953C3.53021 56.2046 8.91415 62.1991 15.672 66.066C16.1 66.3109 16.6447 66.223 16.9566 65.8411V65.8411Z" fill="url(#paint10_linear_1_62)"/>
<path fill-rule="evenodd" clip-rule="evenodd" d="M47.3915 65.8411C46.9856 65.3443 47.1757 64.6211 47.732 64.3015C54.0761 60.6577 59.1334 55.0266 62.0545 48.2576C62.2727 47.752 62.8362 47.4739 63.3547 47.6592V47.6592C63.8984 47.8534 64.1428 48.4649 63.9149 48.9953C60.8179 56.2046 55.434 62.1991 48.6761 66.066C48.2481 66.3109 47.7035 66.223 47.3915 65.8411V65.8411Z" fill="url(#paint11_linear_1_62)"/>
<defs>
<filter id="filter0_d_1_62" x="12.2886" y="13.2886" width="24.0002" height="24.0002" filterUnits="userSpaceOnUse" color-interpolation-filters="sRGB">
<feFlood flood-opacity="0" result="BackgroundImageFix"/>
<feColorMatrix in="SourceAlpha" type="matrix" values="0 0 0 0 0 0 0 0 0 0 0 0 0 0 0 0 0 0 127 0" result="hardAlpha"/>
<feOffset dy="4"/>
<feGaussianBlur stdDeviation="2"/>
<feComposite in2="hardAlpha" operator="out"/>
<feColorMatrix type="matrix" values="0 0 0 0 0 0 0 0 0 0 0 0 0 0 0 0 0 0 0.2 0"/>
<feBlend mode="normal" in2="BackgroundImageFix" result="effect1_dropShadow_1_62"/>
<feBlend mode="normal" in="SourceGraphic" in2="effect1_dropShadow_1_62" result="shape"/>
</filter>
<filter id="filter1_d_1_62" x="28" y="13" width="24" height="24" filterUnits="userSpaceOnUse" color-interpolation-filters="sRGB">
<feFlood flood-opacity="0" result="BackgroundImageFix"/>
<feColorMatrix in="SourceAlpha" type="matrix" values="0 0 0 0 0 0 0 0 0 0 0 0 0 0 0 0 0 0 127 0" result="hardAlpha"/>
<feOffset dy="4"/>
<feGaussianBlur stdDeviation="2"/>
<feComposite in2="hardAlpha" operator="out"/>
<feColorMatrix type="matrix" values="0 0 0 0 0 0 0 0 0 0 0 0 0 0 0 0 0 0 0.2 0"/>
<feBlend mode="normal" in2="BackgroundImageFix" result="effect1_dropShadow_1_62"/>
<feBlend mode="normal" in="SourceGraphic" in2="effect1_dropShadow_1_62" result="shape"/>
</filter>
<filter id="filter2_d_1_62" x="19" y="37" width="10" height="26" filterUnits="userSpaceOnUse" color-interpolation-filters="sRGB">
<feFlood flood-opacity="0" result="BackgroundImageFix"/>
<feColorMatrix in="SourceAlpha" type="matrix" values="0 0 0 0 0 0 0 0 0 0 0 0 0 0 0 0 0 0 127 0" result="hardAlpha"/>
<feOffset dy="4"/>
<feGaussianBlur stdDeviation="2"/>
<feComposite in2="hardAlpha" operator="out"/>
<feColorMatrix type="matrix" values="0 0 0 0 0 0 0 0 0 0 0 0 0 0 0 0 0 0 0.2 0"/>
<feBlend mode="normal" in2="BackgroundImageFix" result="effect1_dropShadow_1_62"/>
<feBlend mode="normal" in="SourceGraphic" in2="effect1_dropShadow_1_62" result="shape"/>
</filter>
<filter id="filter3_d_1_62" x="35" y="37" width="10" height="26" filterUnits="userSpaceOnUse" color-interpolation-filters="sRGB">
<feFlood flood-opacity="0" result="BackgroundImageFix"/>
<feColorMatrix in="SourceAlpha" type="matrix" values="0 0 0 0 0 0 0 0 0 0 0 0 0 0 0 0 0 0 127 0" result="hardAlpha"/>
<feOffset dy="4"/>
<feGaussianBlur stdDeviation="2"/>
<feComposite in2="hardAlpha" operator="out"/>
<feColorMatrix type="matrix" values="0 0 0 0 0 0 0 0 0 0 0 0 0 0 0 0 0 0 0.2 0"/>
<feBlend mode="normal" in2="BackgroundImageFix" result="effect1_dropShadow_1_62"/>
<feBlend mode="normal" in="SourceGraphic" in2="effect1_dropShadow_1_62" result="shape"/>
</filter>
<linearGradient id="paint0_linear_1_62" x1="32.5" y1="10" x2="32.5" y2="62" gradientUnits="userSpaceOnUse">
<stop stop-color="#E60076"/>
<stop offset="1" stop-color="#800042"/>
</linearGradient>
<linearGradient id="paint1_linear_1_62" x1="32.5" y1="10" x2="32.5" y2="62" gradientUnits="userSpaceOnUse">
<stop stop-color="#9810FA"/>
<stop offset="1" stop-color="#5A0994"/>
</linearGradient>
<linearGradient id="paint2_linear_1_62" x1="32.2" y1="15" x2="32.2" y2="57" gradientUnits="userSpaceOnUse">
<stop stop-color="#ED6BFF"/>
<stop offset="1" stop-color="#8E4099"/>
</linearGradient>
<linearGradient id="paint3_linear_1_62" x1="38" y1="28" x2="26" y2="28" gradientUnits="userSpaceOnUse">
<stop stop-color="#FE9A00"/>
<stop offset="1" stop-color="#985C00"/>
</linearGradient>
<linearGradient id="paint4_linear_1_62" x1="26.6428" y1="47.5" x2="32.6428" y2="47.5" gradientUnits="userSpaceOnUse">
<stop stop-color="#FE9A00"/>
<stop offset="1" stop-color="#985C00"/>
</linearGradient>
<linearGradient id="paint5_linear_1_62" x1="26.6428" y1="45.5" x2="32.6428" y2="45.5" gradientUnits="userSpaceOnUse">
<stop stop-color="#FE9A00"/>
<stop offset="1" stop-color="#985C00"/>
</linearGradient>
<linearGradient id="paint6_linear_1_62" x1="0" y1="0.5" x2="6" y2="0.5" gradientUnits="userSpaceOnUse">
<stop stop-color="#FE9A00"/>
<stop offset="1" stop-color="#985C00"/>
</linearGradient>
<linearGradient id="paint7_linear_1_62" x1="0" y1="0.5" x2="6" y2="0.5" gradientUnits="userSpaceOnUse">
<stop stop-color="#FE9A00"/>
<stop offset="1" stop-color="#985C00"/>
</linearGradient>
<linearGradient id="paint8_linear_1_62" x1="8.76108" y1="0" x2="8.76108" y2="18.6016" gradientUnits="userSpaceOnUse">
<stop stop-color="#985C00"/>
<stop offset="1" stop-color="white"/>
</linearGradient>
<linearGradient id="paint9_linear_1_62" x1="55.587" y1="0" x2="55.587" y2="18.6016" gradientUnits="userSpaceOnUse">
<stop stop-color="#985C00"/>
<stop offset="1" stop-color="white"/>
</linearGradient>
<linearGradient id="paint10_linear_1_62" x1="8.76108" y1="66.2032" x2="8.76108" y2="47.6016" gradientUnits="userSpaceOnUse">
<stop stop-color="#985C00"/>
<stop offset="1" stop-color="white"/>
</linearGradient>
<linearGradient id="paint11_linear_1_62" x1="55.587" y1="66.2032" x2="55.587" y2="47.6016" gradientUnits="userSpaceOnUse">
<stop stop-color="#985C00"/>
<stop offset="1" stop-color="white"/>
</linearGradient>
</defs>
</svg>
