<svg width="40" height="43" viewBox="0 0 40 43" fill="none" xmlns="http://www.w3.org/2000/svg">
<path d="M38.8874 15.5934C38.8874 27.1153 31.961 38.7488 19.0489 42.506C14.026 40.8662 9.43229 37.0536 6.08137 32.192C2.70141 27.2883 0.612634 21.3555 0.612634 15.5934C0.612634 9.82331 2.36508 6.08778 5.46937 3.77156C8.60363 1.43298 13.2033 0.472527 19.0412 0.472527C24.8769 0.472527 29.844 1.43193 33.3406 3.78487C36.8029 6.1147 38.8874 9.85451 38.8874 15.5934Z" fill="url(#paint0_linear_4_120)" stroke="#9810FA" stroke-width="0.945055"/>
<path d="M14.5223 17.0233L19.5137 13.7936L24.5052 17.0233L19.5137 23.7765L14.5223 17.0233Z" fill="#FE9A00" stroke="#9810FA" stroke-width="0.945055"/>
<circle cx="12.2261" cy="12.5585" r="6.61538" transform="rotate(2.10663 12.2261 12.5585)" fill="white" stroke="#9810FA" stroke-width="1.89011"/>
<path d="M33.6896 12.2857C33.6896 15.9393 30.7277 18.9011 27.0742 18.9011C23.4206 18.9011 20.4588 15.9393 20.4588 12.2857C20.4588 8.63214 23.4206 5.67033 27.0742 5.67033C30.7277 5.67033 33.6896 8.63214 33.6896 12.2857Z" fill="white" stroke="#9810FA" stroke-width="1.89011"/>
<path d="M14.7885 11.3407C14.7885 12.3845 13.9422 13.2308 12.8983 13.2308C11.8545 13.2308 11.0082 12.3845 11.0082 11.3407C11.0082 10.2968 11.8545 9.45055 12.8983 9.45055C13.9422 9.45055 14.7885 10.2968 14.7885 11.3407Z" fill="#9810FA"/>
<circle cx="26.1291" cy="11.3407" r="1.89011" fill="#9810FA"/>
<rect x="10.1559" y="22.1974" width="9.45055" height="1.89011" rx="0.945055" transform="rotate(40 10.1559 22.1974)" fill="#FE9A00"/>
<rect x="7.72606" y="25.0932" width="9.45055" height="1.89011" rx="0.945055" transform="rotate(40 7.72606 25.0932)" fill="#FE9A00"/>
<rect x="21.632" y="28.2721" width="9.45055" height="1.89011" rx="0.945055" transform="rotate(-40 21.632 28.2721)" fill="#FE9A00"/>
<rect x="24.0619" y="31.1679" width="9.45055" height="1.89011" rx="0.945055" transform="rotate(-40 24.0619 31.1679)" fill="#FE9A00"/>
<defs>
<linearGradient id="paint0_linear_4_120" x1="19.75" y1="0" x2="19.75" y2="43" gradientUnits="userSpaceOnUse">
<stop offset="0.505" stop-color="#E60076"/>
<stop offset="1" stop-color="#800042"/>
</linearGradient>
</defs>
</svg>
